<?xml version="1.0" standalone="no"?>
<!DOCTYPE svg PUBLIC "-//W3C//DTD SVG 20010904//EN"
 "http://www.w3.org/TR/2001/REC-SVG-20010904/DTD/svg10.dtd">
<svg version="1.0" xmlns="http://www.w3.org/2000/svg"
 width="678.000000pt" height="381.000000pt" viewBox="0 0 678.000000 381.000000"
 preserveAspectRatio="xMidYMid meet">
<metadata>
Created by potrace 1.15, written by Peter Selinger 2001-2017
</metadata>
<g transform="translate(0.000000,381.000000) scale(0.100000,-0.100000)"
fill="#000000" stroke="none">
<path d="M0 3210 c0 -527 2 -600 15 -600 8 0 15 5 15 12 0 8 26 9 93 6 104 -7
118 -4 110 20 -4 14 -3 14 5 3 6 -8 17 -11 26 -8 9 4 16 2 16 -3 0 -6 14 -10
30 -10 17 0 30 5 30 10 0 6 9 10 20 10 11 0 20 5 20 10 0 13 37 13 42 0 2 -6
31 -6 83 -1 49 6 84 6 89 0 13 -12 29 -12 22 0 -3 5 3 11 14 14 11 3 20 0 20
-6 0 -6 7 -2 15 9 12 16 14 16 15 3 0 -11 9 -16 25 -16 13 0 22 3 20 8 -3 4
-1 10 5 14 5 3 10 0 10 -8 0 -8 7 -17 15 -21 8 -3 15 -1 15 4 0 6 -4 10 -9 10
-5 0 -7 9 -4 21 4 16 8 17 14 7 21 -32 8 -64 -23 -59 -5 0 -8 -4 -8 -9 0 -6
-11 -15 -25 -20 -14 -5 -25 -13 -25 -18 0 -11 -62 -30 -125 -37 -30 -3 -55
-12 -63 -22 -6 -9 -12 -13 -12 -8 0 5 -5 4 -12 -3 -7 -7 -36 -12 -65 -12 -40
0 -53 -4 -53 -15 0 -24 -46 -48 -82 -42 -25 4 -43 -1 -70 -20 -21 -14 -58 -29
-83 -34 -30 -6 -54 -18 -70 -36 -20 -23 -26 -25 -34 -14 -7 11 -11 6 -16 -20
-3 -19 -4 -428 -3 -909 l3 -875 32 0 c17 0 29 3 26 8 -2 4 12 7 32 7 25 0 34
-4 29 -12 -5 -7 -3 -8 7 -3 18 12 169 23 169 13 0 -5 -4 -8 -10 -8 -5 0 -10
-9 -10 -20 0 -11 5 -20 10 -20 6 0 10 4 10 9 0 4 23 11 50 14 28 3 58 13 67
22 23 24 67 39 71 26 2 -6 8 -11 14 -11 6 0 8 7 4 15 -5 15 4 19 37 16 9 -1
17 2 17 7 0 5 9 12 20 15 11 3 20 1 20 -4 0 -5 -5 -9 -12 -9 -21 0 1 -13 27
-16 16 -2 25 2 25 11 0 10 5 11 25 2 34 -16 25 -33 -16 -29 -26 2 -30 0 -19
-7 22 -16 57 -13 64 4 3 8 12 12 21 9 9 -4 15 -1 15 9 0 8 6 17 13 20 6 2 8 8
4 13 -5 5 -15 1 -23 -10 -8 -11 -14 -14 -14 -7 0 6 -6 11 -12 10 -7 -1 -21 1
-31 6 -27 12 0 26 29 15 19 -8 34 3 34 24 0 2 -19 2 -42 2 -37 -1 -44 -4 -48
-25 -6 -30 -30 -40 -30 -13 0 11 5 22 11 24 7 2 4 10 -7 18 -15 12 -16 13 -9
1 6 -11 4 -13 -8 -8 -10 3 -17 2 -17 -3 0 -6 -7 -10 -15 -10 -8 0 -15 6 -15
13 0 7 -3 8 -8 2 -4 -5 -20 -11 -37 -13 -16 -1 -47 -4 -68 -6 -31 -3 -37 0
-37 16 0 11 8 22 19 25 11 3 22 12 25 20 3 8 1 11 -4 8 -5 -3 -18 -1 -27 4
-16 9 -15 11 7 12 14 1 41 1 60 0 42 -3 66 -21 28 -21 -17 0 -27 -7 -31 -21
-3 -13 -1 -19 6 -16 7 3 11 8 10 13 -1 5 12 10 28 11 81 7 84 8 80 36 0 4 4 7
10 7 6 0 8 -9 4 -20 -8 -24 7 -26 29 -4 9 8 28 17 43 18 16 2 28 5 28 6 0 1 8
3 18 5 9 2 17 0 17 -5 0 -11 25 -7 42 7 7 6 27 14 43 18 29 6 29 6 11 -9 -22
-18 -14 -21 14 -6 16 9 18 8 14 -5 -5 -11 -2 -13 10 -9 11 4 15 13 10 26 -5
18 -4 18 16 8 12 -6 19 -17 17 -25 -3 -7 -1 -17 6 -24 7 -7 2 -9 -21 -7 -23 3
-29 1 -25 -10 9 -23 -13 -16 -25 8 -6 13 -11 17 -11 9 -1 -11 -6 -10 -21 4
-18 17 -20 17 -14 2 4 -11 1 -17 -7 -18 -8 -1 -23 -2 -34 -3 -11 -1 -30 -3
-43 -4 -19 -2 -21 -4 -10 -15 7 -7 24 -18 38 -25 14 -6 32 -17 41 -23 9 -7 27
-9 44 -5 27 7 28 18 1 22 -31 4 -56 16 -56 26 0 6 7 7 18 2 29 -13 226 -13
235 0 5 8 12 6 21 -7 15 -19 47 -19 96 1 l25 11 -25 2 c-17 1 -20 3 -7 6 19 5
22 18 7 28 -5 3 -10 12 -10 18 0 7 10 1 21 -13 12 -15 22 -20 25 -14 4 9 13 9
36 0 25 -9 32 -8 36 2 3 9 8 10 17 2 8 -7 21 -7 38 -1 15 6 37 6 54 1 28 -8
25 -10 -34 -14 -18 -1 -36 -6 -40 -10 -5 -4 6 -7 22 -5 44 4 78 -10 71 -28 -4
-11 -2 -13 9 -10 8 4 17 2 20 -2 6 -11 45 -2 45 10 0 5 -4 9 -10 9 -5 0 -10 5
-10 11 0 8 5 7 15 -1 13 -10 19 -10 35 5 17 15 20 16 25 2 7 -16 45 -12 45 5
0 6 -7 8 -15 5 -8 -4 -17 -2 -20 3 -3 5 19 9 49 9 47 0 54 -3 49 -17 -4 -10
-8 -12 -11 -4 -5 17 -22 15 -22 -3 0 -8 -7 -15 -15 -15 -8 0 -15 -7 -15 -15 0
-8 6 -15 14 -15 8 0 21 -9 29 -20 15 -22 27 -17 27 11 0 9 6 20 12 23 7 3 -7
4 -32 1 -44 -4 -44 -4 -13 7 18 6 35 20 39 31 5 16 8 17 15 6 6 -10 9 -11 9
-1 0 8 16 12 45 12 36 0 43 -3 38 -16 -4 -11 -8 -12 -13 -4 -5 9 -9 9 -14 1
-4 -6 -12 -11 -17 -11 -6 0 -7 5 -4 10 3 6 -1 10 -10 10 -11 0 -15 -5 -12 -14
3 -8 3 -17 -1 -19 -4 -2 -1 -2 6 -1 6 2 12 -1 12 -6 0 -5 -11 -12 -25 -16 -14
-3 -25 -10 -25 -15 0 -5 8 -6 18 -3 15 5 15 4 -1 -9 -18 -15 -18 -16 1 -33 11
-9 18 -24 15 -32 -4 -10 0 -9 15 4 21 18 31 41 13 30 -5 -3 -11 0 -14 8 -5 11
0 12 24 3 l30 -12 -26 -18 c-17 -13 -24 -25 -20 -37 4 -13 -1 -22 -14 -29 -33
-18 -39 -13 -35 26 5 56 -2 70 -36 70 -16 0 -27 -4 -25 -8 3 -3 -4 -9 -15 -12
-11 -3 -18 -1 -14 4 3 5 0 9 -5 9 -6 0 -11 -7 -11 -15 0 -8 -5 -15 -11 -15 -5
0 -7 5 -4 10 3 6 2 10 -3 10 -6 0 -12 -6 -15 -14 -7 -18 -47 -28 -47 -11 0 8
8 11 20 8 15 -4 20 0 20 16 0 11 6 21 13 21 7 0 13 9 14 20 2 25 -5 25 -24 2
-8 -9 -11 -11 -7 -3 5 10 3 12 -6 6 -7 -4 -16 -2 -21 6 -7 11 -9 10 -9 -3 0
-10 5 -18 10 -18 6 0 10 -6 10 -14 0 -19 -32 -30 -42 -14 -4 7 -8 10 -9 6 -1
-5 -2 -11 -3 -15 -1 -5 -6 -16 -12 -27 -9 -14 -13 -16 -19 -5 -5 7 -4 14 3 17
14 4 16 22 3 22 -5 0 -13 -9 -16 -20 -6 -20 -35 -28 -35 -10 0 6 5 10 10 10 6
0 10 4 10 9 0 5 -11 8 -24 7 -17 -1 -22 -5 -16 -15 4 -7 1 -27 -7 -43 -8 -16
-13 -31 -11 -33 10 -10 78 -13 78 -4 0 6 -4 7 -10 4 -5 -3 -10 -2 -10 3 0 6 7
12 15 16 11 4 15 -1 15 -17 0 -12 4 -17 8 -12 4 6 16 12 26 13 17 3 18 2 7
-12 -11 -13 -11 -16 2 -16 9 0 19 5 22 10 3 6 14 10 23 10 15 -1 15 -2 -2 -15
-18 -14 -15 -20 8 -16 4 1 5 -10 2 -25 -6 -24 -5 -26 9 -14 9 7 14 19 11 27
-3 7 -1 13 3 13 16 0 20 -28 5 -34 -25 -10 -15 -25 22 -32 25 -5 32 -9 22 -15
-7 -5 -8 -9 -2 -9 20 0 24 13 8 31 -16 18 -11 44 6 34 5 -3 23 1 40 10 30 16
56 12 45 -6 -3 -5 2 -6 11 -2 10 4 20 0 26 -10 7 -13 19 -15 56 -12 36 3 42 2
25 -5 -13 -5 -23 -12 -23 -16 0 -10 115 5 161 21 26 10 37 11 33 3 -5 -8 -1
-9 11 -4 11 4 21 2 26 -5 4 -7 15 -9 25 -5 16 6 16 8 4 16 -13 8 -12 10 3 10
9 0 17 -7 17 -15 0 -8 7 -15 16 -15 14 0 15 2 3 17 -13 15 -12 15 5 6 13 -7
29 -8 43 -2 29 11 30 -4 1 -24 l-23 -15 28 3 c15 2 27 -1 27 -6 0 -5 -18 -9
-40 -9 -24 0 -40 -5 -40 -12 0 -6 3 -8 6 -5 4 3 14 2 23 -2 10 -6 31 -4 53 4
21 7 35 9 32 4 -3 -5 0 -9 5 -9 6 0 11 8 11 18 0 13 2 14 9 3 7 -11 12 -11 31
2 12 8 30 13 39 9 13 -5 11 -7 -9 -13 -17 -4 -6 -6 32 -7 32 0 65 -6 75 -12
14 -9 9 -10 -29 -8 -27 2 -48 0 -48 -4 0 -4 -7 -5 -15 -2 -10 4 -15 0 -15 -15
0 -24 -15 -28 -24 -5 -3 8 -2 12 4 9 6 -3 10 -1 10 4 0 21 -31 11 -39 -13 -13
-33 -38 -40 -52 -13 -11 20 -11 21 4 8 10 -8 17 -9 17 -3 0 6 -5 14 -10 17 -6
4 -8 11 -5 16 4 5 2 9 -3 9 -6 0 -13 -12 -16 -26 -5 -19 -12 -24 -29 -22 -14
2 -21 -2 -19 -10 2 -10 -2 -10 -18 -2 -11 6 -25 8 -30 5 -6 -3 -10 -1 -10 4 0
6 -18 11 -41 11 -24 0 -38 4 -34 10 3 6 1 10 -4 10 -6 0 -11 -3 -11 -7 0 -12
16 -35 24 -34 3 1 14 1 24 1 14 0 15 -2 2 -10 -8 -5 -24 -7 -34 -4 -14 5 -18
2 -13 -8 4 -11 -1 -14 -19 -10 -13 2 -31 -1 -39 -8 -8 -7 -15 -8 -15 -3 0 10
-17 14 -63 14 -25 0 -27 2 -16 15 7 8 19 12 27 9 12 -4 13 -3 2 10 -11 14 -14
13 -27 -5 -8 -11 -19 -18 -24 -15 -5 4 -9 1 -9 -4 0 -6 4 -11 8 -11 5 0 9 -14
10 -30 0 -17 -4 -30 -9 -30 -5 0 -9 6 -8 12 3 24 -1 38 -11 38 -5 0 -10 -11
-10 -24 0 -19 -6 -25 -30 -28 -17 -3 -33 -2 -35 2 -5 8 28 42 36 38 2 -2 -2 3
-10 9 -8 7 -11 13 -5 14 5 0 -1 4 -13 9 -13 5 -23 17 -23 27 0 13 -3 14 -12 5
-8 -8 -8 -15 3 -29 7 -10 9 -15 5 -11 -5 4 -15 3 -21 -2 -9 -8 -11 -3 -7 17
l5 28 -23 -20 c-18 -15 -22 -16 -18 -4 4 9 1 16 -8 16 -8 0 -12 -3 -9 -5 6 -7
-15 -32 -26 -32 -5 0 -9 8 -9 18 0 15 2 15 11 2 9 -12 10 -10 6 9 -4 17 -1 25
14 28 16 5 18 8 7 14 -9 6 -9 9 -1 9 6 0 15 -5 18 -10 4 -7 11 -7 18 -2 17 13
63 23 71 15 3 -4 17 -8 29 -9 12 -2 16 0 10 2 -17 7 -17 28 0 21 7 -3 24 1 38
9 23 13 23 13 -14 12 -22 -1 -41 -7 -44 -14 -3 -9 -13 -10 -36 -3 -50 14 -82
11 -102 -11 -19 -20 -41 -28 -30 -10 3 6 2 10 -4 10 -5 0 -8 9 -6 20 2 11 -1
20 -7 20 -5 0 -7 -7 -4 -16 5 -13 2 -15 -14 -11 -13 3 -18 1 -13 -6 4 -6 0 -8
-10 -4 -12 4 -17 1 -17 -10 0 -14 -2 -14 -15 3 -11 14 -14 15 -15 4 0 -13 -1
-13 -10 0 -8 13 -10 12 -10 -2 0 -10 4 -18 8 -18 5 0 17 -7 28 -15 16 -13 16
-14 1 -9 -24 9 -51 -14 -37 -31 9 -11 0 -15 -42 -22 -43 -7 -53 -12 -53 -28 0
-13 -6 -19 -18 -17 -20 3 -24 -23 -4 -32 9 -5 9 -7 -1 -12 -10 -5 -9 -9 5 -21
17 -13 16 -13 -4 -3 -13 6 -23 9 -23 6 0 -3 -13 0 -30 5 -16 6 -27 15 -24 20
3 5 0 9 -5 9 -6 0 -11 -4 -11 -8 0 -5 -11 -14 -25 -20 -30 -14 -34 -37 -4 -29
15 4 19 2 15 -8 -3 -8 3 -20 13 -27 9 -7 21 -20 26 -28 7 -12 3 -11 -18 3 -39
25 -42 21 -12 -15 27 -32 30 -33 118 -35 61 -2 95 1 105 9 12 10 14 10 8 1
-10 -18 1712 -18 1750 -1 19 9 30 9 44 0 17 -10 85 -8 118 3 7 3 10 0 7 -5 -4
-7 580 -10 1704 -10 l1711 0 0 1684 0 1685 -60 22 c-33 12 -63 26 -66 30 -3 5
-18 9 -34 9 -16 0 -32 5 -35 10 -3 5 -1 10 4 10 6 0 11 5 11 11 0 7 -13 9 -37
5 -30 -4 -33 -4 -15 4 32 14 27 20 -9 10 -26 -8 -38 -5 -67 15 -22 15 -30 25
-20 25 9 0 18 3 21 8 2 4 2 2 1 -5 -6 -25 35 -37 73 -22 17 6 23 14 19 27 -7
20 23 62 43 62 6 0 11 5 11 10 0 6 11 8 27 4 32 -8 114 32 106 53 -3 7 2 16
11 19 12 5 16 20 16 63 l0 58 -217 6 c-120 4 -520 7 -889 7 -603 0 -672 -2
-678 -16 -3 -9 -6 -67 -6 -131 0 -113 0 -114 -22 -111 -22 3 -23 6 -19 92 2
67 0 90 -10 97 -24 15 -85 10 -110 -10 -13 -10 -39 -22 -56 -25 -19 -4 -33
-14 -33 -22 0 -17 -5 -17 -28 -3 -14 9 -54 2 -188 -34 -94 -26 -217 -62 -275
-82 -57 -19 -110 -33 -117 -30 -7 3 -11 1 -8 -4 6 -8 -107 -46 -131 -44 -7 0
-10 -4 -6 -10 4 -6 -2 -8 -15 -5 -12 4 -20 3 -17 -2 6 -9 -18 -20 -45 -20 -46
0 -461 -191 -569 -261 l-34 -23 13 25 c27 52 61 87 127 132 38 26 72 47 76 47
4 0 36 14 72 30 36 17 94 43 130 60 36 17 68 30 70 30 5 0 121 53 157 71 10 5
22 9 28 9 5 0 33 11 62 24 80 36 168 72 213 86 22 7 45 16 50 20 6 4 60 24
120 45 61 21 124 44 140 51 25 11 -369 13 -2267 14 l-2298 0 0 -600z m4747
425 c0 -12 -14 -15 -59 -15 -69 0 -103 -15 -146 -65 -42 -48 -67 -98 -87 -176
-16 -63 -42 -99 -73 -99 -20 0 -11 74 18 154 40 106 122 174 240 199 89 20
107 20 107 2z m-3067 -58 c0 -7 18 -24 40 -37 22 -14 43 -35 46 -47 7 -25 30
-31 37 -10 3 8 10 7 26 -7 30 -27 26 -37 -11 -29 l-33 6 19 -22 c11 -11 17
-23 15 -25 -15 -13 -51 -26 -59 -21 -12 7 -50 -12 -50 -25 0 -6 10 -21 22 -36
23 -25 45 -27 111 -8 23 7 23 -32 0 -58 -15 -17 -15 -18 13 -19 16 -1 35 -1
42 0 39 6 52 -69 18 -95 -10 -7 -17 -21 -16 -31 4 -30 1 -33 -25 -23 -28 11
-33 -1 -9 -21 8 -7 13 -21 11 -31 -3 -10 -2 -20 3 -23 4 -3 10 5 14 18 5 18 8
19 15 7 7 -9 6 -19 -2 -29 -9 -11 -9 -13 0 -8 13 8 66 -38 76 -66 4 -10 11
-16 15 -13 5 3 16 -4 26 -16 18 -20 18 -21 -8 -14 -32 8 -37 -17 -7 -36 15 -9
17 -16 10 -30 -8 -14 -6 -18 9 -18 11 0 22 -8 24 -17 4 -14 -1 -18 -24 -17
-35 1 -40 6 -44 41 -2 16 -5 41 -7 57 -5 38 -77 101 -77 68 0 -5 -27 -7 -60
-5 -58 4 -60 4 -60 -20 0 -14 -3 -38 -6 -55 -7 -36 23 -72 61 -72 20 0 24 -5
22 -22 -3 -32 -16 -38 -37 -19 -37 33 -46 37 -85 39 -50 4 -57 10 -17 18 31 6
32 9 32 55 0 53 -5 59 -26 32 -12 -17 -13 -16 -14 5 0 12 4 22 9 22 5 0 9 20
9 45 0 25 -4 45 -9 45 -5 0 -9 3 -9 8 0 4 22 5 50 4 53 -4 58 1 39 42 -10 21
-21 26 -68 31 -98 10 -121 16 -122 28 -1 7 -5 1 -9 -13 -8 -23 -9 -24 -15 -5
-5 17 -16 20 -86 22 -110 4 -114 7 -117 91 -3 68 -2 71 30 101 18 17 42 31 53
31 11 0 42 18 69 40 45 37 62 45 94 41 6 -1 12 5 12 14 0 9 7 23 15 31 13 14
13 17 0 30 -8 9 -15 22 -15 29 0 8 -8 18 -17 24 -15 8 -16 10 -3 15 8 2 22 7
30 9 25 9 30 8 30 -6z m1189 -200 c7 -6 17 -22 22 -36 11 -29 -1 -41 -44 -41
-40 0 -62 -14 -86 -55 -25 -43 -41 -44 -69 -6 -20 28 -20 30 -3 45 10 9 24 16
33 16 19 0 50 34 47 52 -3 26 1 37 19 41 22 5 63 -3 81 -16z m1771 5 c0 -4
-15 -31 -33 -60 -32 -48 -34 -59 -40 -164 -4 -62 -7 -143 -7 -179 0 -36 -3
-69 -7 -73 -5 -4 -8 -18 -8 -29 0 -19 -7 -23 -50 -28 -105 -13 -158 -57 -120
-99 18 -20 38 -19 149 5 l58 13 25 -55 c14 -30 26 -68 28 -82 1 -15 4 -32 8
-37 3 -6 -80 -25 -206 -48 -429 -76 -542 -98 -775 -147 -261 -55 -305 -62
-295 -45 4 6 54 85 111 176 198 311 215 341 203 364 -8 18 -10 18 -10 4 -1
-10 -5 -18 -11 -18 -5 0 -7 -6 -4 -14 6 -16 -16 -55 -175 -306 -65 -102 -123
-194 -130 -205 l-13 -20 8 20 c35 89 128 393 164 532 10 39 13 42 53 48 23 4
63 13 88 20 l46 13 27 -86 c14 -48 26 -92 26 -98 0 -18 -151 -202 -279 -339
-75 -80 -95 -110 -42 -60 54 50 231 250 292 330 l47 60 -18 70 c-10 39 -23 82
-29 97 -6 15 -6 30 -1 33 4 3 71 21 147 40 204 52 293 83 294 103 1 15 2 15 6
1 4 -15 9 -15 66 2 34 9 74 20 90 23 22 5 27 12 27 36 0 63 14 77 100 104 45
14 90 26 101 26 10 0 19 4 19 9 0 5 12 23 27 40 27 30 43 39 43 23z m101 -31
c1 -9 2 -27 2 -41 2 -27 15 -30 73 -16 l30 7 -7 -58 c-5 -32 -11 -82 -14 -112
-3 -30 -9 -59 -12 -65 -4 -6 -6 -21 -4 -33 7 -58 -52 -289 -101 -394 -27 -58
-43 -62 -53 -13 -3 20 -17 61 -31 91 l-24 55 22 17 c20 17 22 29 26 184 4 155
3 169 -17 207 -25 48 -27 69 -6 77 9 3 15 13 14 22 -4 23 10 60 29 80 21 21
72 16 73 -8z m224 -68 c0 -13 6 -28 13 -35 15 -15 15 -84 2 -203 -12 -103 -27
-181 -41 -210 -5 -11 -13 -51 -19 -90 -6 -50 -7 3 -3 185 3 140 6 266 8 280 1
14 3 42 4 63 1 31 4 38 19 35 10 -2 17 -13 17 -25z m-2741 -97 c21 -3 47 -8
57 -11 12 -4 21 -1 25 9 3 9 12 16 20 16 17 0 18 -12 3 -27 -8 -8 -3 -16 21
-28 25 -13 30 -19 19 -26 -8 -4 -14 -14 -15 -21 0 -7 -3 -20 -7 -28 -13 -35
-14 -59 -3 -63 23 -9 -51 -29 -92 -24 -24 3 -59 0 -78 -6 -41 -13 -66 2 -45
27 10 12 8 19 -10 37 -17 17 -23 19 -30 8 -5 -8 -9 -11 -9 -7 0 3 -3 13 -6 22
-5 12 0 16 17 16 12 0 33 9 45 21 18 17 21 28 16 61 -4 36 -3 40 14 34 10 -3
36 -8 58 -10z m741 -236 c-17 -7 -17 -9 -3 -9 11 -1 15 -6 12 -16 -4 -10 -20
-15 -46 -15 -48 0 -155 -46 -163 -69 -3 -10 -25 -22 -52 -29 -49 -14 -100 -59
-151 -134 -13 -21 -29 -38 -33 -38 -11 0 41 104 70 140 17 22 18 25 3 36 -14
10 -14 12 4 22 10 5 64 24 119 41 55 18 107 37 115 42 8 5 23 12 33 15 9 4 17
10 17 15 0 5 21 9 48 8 35 0 42 -3 27 -9z m-379 -342 c-32 -147 -38 -184 -39
-235 -2 -53 -4 -58 -26 -61 l-24 -4 8 99 c11 146 20 195 41 210 28 20 45 16
40 -9z m-943 -20 c43 1 83 -1 89 -4 21 -13 -56 -43 -110 -44 -63 0 -83 -9
-139 -63 -42 -40 -61 -43 -26 -5 17 19 16 19 -12 13 -71 -17 -141 -39 -189
-60 -51 -23 -87 -20 -72 4 4 6 12 9 17 5 5 -3 15 -1 22 4 32 26 111 62 192 88
50 15 92 32 93 36 2 4 10 8 18 8 8 0 11 6 7 17 -5 13 -3 15 13 7 10 -5 54 -8
97 -6z m3047 -75 c0 -10 -4 -24 -9 -32 -7 -11 -10 -11 -17 0 -4 7 -3 14 4 17
22 7 3 19 -23 14 -22 -4 -23 -6 -10 -16 14 -10 13 -12 -5 -24 -20 -12 -25 -6
-21 21 0 4 -9 7 -21 6 -13 0 -17 -3 -10 -6 24 -9 12 -25 -15 -19 -16 3 -22 3
-15 0 6 -3 12 -10 12 -15 0 -6 -4 -7 -10 -4 -5 3 -10 2 -10 -3 0 -5 9 -12 21
-15 29 -8 19 -31 -17 -38 -23 -5 -24 -7 -6 -8 42 -2 17 -61 -26 -61 -15 0 -72
-7 -127 -16 -55 -9 -120 -17 -143 -18 -24 -2 -47 -7 -50 -12 -4 -6 -23 -11
-42 -12 l-35 -2 25 20 c14 11 29 20 33 20 5 0 5 5 2 10 -4 6 -11 8 -16 5 -5
-4 -9 -1 -9 4 0 6 11 11 24 11 14 0 28 5 32 12 5 8 -4 10 -32 6 l-39 -6 32 14
c33 14 52 34 33 34 -6 0 -8 5 -5 10 11 18 -35 10 -80 -14 -43 -22 -44 -24 -22
-34 l22 -11 -22 0 c-13 -1 -28 -10 -35 -21 -7 -11 -17 -20 -23 -20 -17 0 -65
-61 -58 -73 3 -7 -3 -4 -15 7 -12 10 -24 28 -28 40 -3 11 -15 30 -25 42 -15
16 -16 21 -5 21 8 0 13 -4 10 -9 -3 -4 0 -8 5 -8 13 0 13 3 5 23 -3 10 -14 14
-30 11 -15 -3 -24 0 -24 9 0 8 28 17 83 26 283 46 280 46 537 95 213 41 200
40 200 19z m-3364 -133 c-58 -23 -98 -58 -131 -119 l-25 -44 39 7 c23 3 42 2
46 -4 3 -5 -1 -10 -9 -10 -21 0 -26 -12 -39 -98 -10 -63 -15 -77 -32 -81 -11
-2 -25 -11 -32 -20 -14 -17 -14 -15 7 129 5 36 12 79 14 97 8 60 77 132 146
151 59 17 68 12 16 -8z m1799 -181 c4 -6 12 -8 19 -6 17 7 9 -275 -8 -285 -6
-4 -23 -8 -37 -8 -23 0 -27 5 -33 38 -3 20 -6 81 -6 135 0 91 2 99 20 104 11
3 20 12 20 19 0 17 16 19 25 3z m-2428 -227 c13 -30 13 -35 -2 -52 -28 -31
-106 -58 -200 -70 -50 -6 -112 -18 -140 -27 -83 -25 -115 -31 -115 -23 0 11
104 120 114 120 5 0 18 8 28 17 18 16 19 16 24 -4 7 -24 34 -40 34 -20 1 7 6
2 13 -10 12 -22 14 -22 36 -6 22 15 23 17 6 29 -13 10 -15 19 -8 39 l8 26 29
-45 28 -45 34 25 c26 21 37 23 53 15 30 -17 48 -13 24 4 -22 15 -22 16 -5 49
9 19 19 29 20 23 2 -7 11 -27 19 -45z m3313 14 c0 -14 5 -17 23 -12 12 3 67
13 122 22 55 8 108 20 117 25 13 6 16 5 12 -5 -6 -17 -73 -47 -107 -49 -18 -2
-27 -9 -30 -24 -4 -20 -1 -22 22 -16 14 4 96 7 181 8 126 0 165 -3 208 -19 29
-10 51 -20 49 -22 -27 -27 -452 -78 -466 -56 -4 7 -72 10 -179 10 -95 -1 -175
2 -179 5 -3 4 9 7 27 7 18 0 30 3 27 7 -4 3 11 17 34 30 50 28 57 29 34 3 -26
-29 -3 -24 25 5 17 18 19 25 9 26 -8 0 -4 4 8 9 13 5 24 21 28 42 4 18 10 37
12 42 7 11 23 -14 23 -38z m-414 -83 c-7 -53 -4 -48 -35 -58 -16 -5 -21 -4
-17 4 9 14 -4 14 -24 1 -13 -9 -13 -10 0 -11 8 0 -13 -8 -48 -16 -35 -8 -66
-13 -68 -11 -6 6 7 93 16 108 4 6 38 15 76 19 117 14 108 17 100 -36z m-2193
-301 c-6 -4 -15 -20 -18 -35 -6 -23 -4 -27 14 -27 28 0 27 -18 -1 -22 -25 -3
-35 -35 -40 -133 -2 -41 -8 -62 -18 -67 -8 -4 -52 -7 -97 -7 -74 -1 -83 -3
-83 -20 0 -10 -3 -33 -6 -51 l-7 -32 99 4 99 4 2 -78 1 -77 -46 -27 c-26 -15
-55 -34 -65 -42 -18 -16 -55 -18 -129 -6 -33 5 -38 9 -38 32 0 20 -3 23 -9 13
-5 -8 -16 -11 -26 -7 -12 4 -16 2 -12 -8 5 -13 0 -13 -39 -1 -62 18 -71 29
-78 85 -19 159 -19 150 -2 144 13 -5 15 -1 10 27 -4 19 -13 44 -20 56 -9 14
-14 52 -14 107 l0 84 39 31 c31 24 50 31 102 35 150 13 165 11 201 -19 29 -25
33 -26 36 -10 2 10 -2 21 -9 26 -12 7 10 13 86 22 56 7 80 7 68 -1z m3310 -59
c-4 -10 -14 -25 -22 -33 -9 -8 -22 -26 -30 -40 -15 -27 -32 -205 -29 -318 0
-40 -3 -77 -8 -82 -10 -9 -164 -30 -402 -55 -148 -15 -154 -16 -187 -45 -11
-10 -29 -20 -40 -23 -15 -3 -12 -5 9 -6 21 -1 26 -4 18 -13 -5 -7 -12 -36 -13
-64 -4 -45 -1 -52 19 -62 12 -5 23 -7 23 -4 1 4 3 17 4 29 1 13 7 28 13 36 7
7 7 18 2 27 -9 15 11 63 31 76 18 11 243 30 364 31 61 1 99 -1 85 -4 -14 -3
-29 -9 -34 -13 -5 -5 -21 -7 -35 -4 -14 2 -39 0 -56 -5 -29 -9 -29 -10 -7 -16
18 -6 20 -10 11 -21 -6 -8 -9 -21 -5 -29 3 -8 0 -15 -7 -15 -14 -1 22 -30 36
-30 5 0 6 8 3 18 -5 14 -4 14 9 -2 11 -15 15 -16 15 -5 0 8 -6 21 -12 28 -11
11 -10 13 5 8 12 -5 17 -1 17 12 0 9 11 28 25 41 14 13 25 18 25 12 0 -6 7 -9
15 -6 9 4 15 0 15 -10 0 -18 -15 -22 -25 -6 -13 21 -23 9 -16 -17 10 -34 -4
-68 -33 -81 -19 -9 -17 -10 14 -12 102 -5 121 0 190 47 l25 17 -18 -21 c-25
-29 -108 -64 -187 -80 l-65 -13 72 6 c40 3 86 9 104 14 l32 10 -23 -22 c-21
-19 -22 -27 -16 -90 8 -87 -1 -146 -25 -159 -10 -5 -95 -16 -188 -24 -94 -8
-179 -19 -189 -24 -24 -13 -39 -50 -47 -118 -6 -58 1 -103 18 -103 24 0 47 34
47 71 0 21 5 41 10 44 6 3 10 0 10 -8 0 -7 13 -25 28 -40 30 -29 77 -36 112
-17 27 14 34 63 15 99 -18 37 -27 32 110 55 55 9 114 19 130 22 17 3 25 2 19
-3 -15 -12 -17 -94 -4 -160 9 -39 9 -58 2 -61 -17 -5 20 -42 43 -42 11 0 26
-4 33 -9 22 -14 -23 -21 -138 -21 -58 -1 -125 -5 -150 -11 -95 -22 -157 -27
-230 -18 -214 27 -458 71 -805 145 -115 25 -241 52 -280 60 -143 30 -145 31
-167 80 -12 28 -17 55 -13 72 3 15 -2 72 -10 127 -28 173 -37 268 -31 319 3
27 1 81 -4 120 -13 107 -21 339 -12 354 7 10 19 11 53 3 41 -9 46 -8 70 18
l25 28 280 7 c153 3 391 11 527 17 136 6 254 8 262 5 12 -4 13 -11 5 -32 -6
-15 -9 -28 -7 -30 2 -2 39 0 83 6 43 5 108 12 144 14 128 9 305 41 367 65 1 1
-1 -7 -4 -16z m-2723 -51 l165 -7 -3 -24 c-3 -22 -1 -23 32 -17 25 5 43 2 61
-10 25 -16 25 -17 6 -31 -38 -26 -106 -44 -165 -44 -63 0 -76 5 -58 23 15 15
16 31 0 22 -8 -5 -9 -2 -5 9 4 10 -10 1 -29 -18 -30 -30 -40 -35 -67 -30 -18
2 -79 10 -137 15 -175 18 -170 16 -170 61 0 24 5 39 13 40 6 0 39 6 72 13 33
7 74 11 90 9 17 -3 104 -8 195 -11z m-1585 -151 c55 -6 118 -14 140 -16 139
-16 192 -75 152 -169 l-13 -29 -19 29 c-24 37 -86 93 -102 94 -7 0 -13 -6 -13
-13 0 -8 -9 -25 -21 -38 -15 -18 -19 -32 -14 -56 6 -34 -5 -43 -22 -20 -17 20
-22 56 -13 87 5 19 4 34 -4 46 -12 15 -13 15 -19 1 -3 -9 -13 -14 -21 -11 -10
4 -16 -6 -21 -38 -6 -32 -9 -38 -15 -24 -6 17 -7 18 -13 3 -3 -9 -2 -19 3 -22
6 -4 10 -18 10 -32 0 -20 -3 -23 -13 -14 -8 6 -17 8 -20 4 -4 -3 -7 5 -7 18 0
20 -2 21 -11 9 -9 -13 -10 -13 -6 2 5 15 0 37 -26 111 -9 26 -27 38 -27 17 0
-21 -19 -9 -28 18 -10 26 -10 26 -11 -13 l-1 -40 -25 37 c-14 20 -25 45 -24
55 0 10 3 13 6 6 8 -20 47 -15 61 8 9 14 17 18 25 11 7 -5 57 -15 112 -21z
m1238 -501 c12 0 51 -9 87 -20 66 -21 195 -53 285 -72 28 -5 74 -8 104 -5 30
3 73 1 95 -4 23 -5 68 -16 101 -24 l60 -14 -110 4 c-167 8 -267 23 -415 61
-233 62 -240 64 -239 82 0 11 2 12 6 5 2 -7 14 -13 26 -13z"/>
<path d="M3041 1046 c-15 -18 -8 -98 15 -177 11 -36 22 -52 39 -59 68 -26 581
-90 719 -90 104 0 106 3 125 162 6 60 5 70 -13 92 -12 13 -34 27 -51 30 -56
11 -515 36 -545 30 -16 -4 -36 -2 -42 4 -7 5 -63 13 -124 16 -94 6 -112 5
-123 -8z m299 -36 c74 -6 142 -13 151 -16 25 -7 12 -44 -15 -44 -15 0 -17 -3
-7 -9 9 -6 10 -11 2 -15 -6 -4 -14 0 -17 8 -3 9 -14 16 -24 16 -31 0 -13 -40
19 -41 l26 0 -23 -10 c-13 -5 -28 -7 -33 -4 -5 4 -6 0 -4 -7 3 -8 -8 -26 -24
-42 -29 -27 -32 -28 -103 -22 -40 4 -93 11 -118 16 -31 5 -50 5 -60 -3 -8 -6
-12 -8 -8 -3 4 5 1 20 -6 35 -17 31 -31 135 -21 150 4 7 29 10 68 6 34 -2 123
-10 197 -15z m564 -53 c12 -5 16 -19 14 -64 l-1 -58 -7 55 -7 55 -1 -45 c-1
-25 -9 -56 -18 -69 -16 -23 -16 -23 5 -11 21 11 22 10 19 -17 -4 -37 -18 -38
-203 -22 -101 9 -140 15 -120 20 17 4 22 7 13 8 -26 2 -22 21 4 21 28 0 18 10
-18 16 -16 3 -33 9 -39 15 -16 16 -22 10 -18 -18 4 -22 2 -25 -6 -13 -18 25
-13 92 8 114 19 20 30 21 189 20 94 -1 177 -4 186 -7z"/>
<path d="M3095 649 c-7 -10 21 -140 34 -167 4 -7 7 20 7 60 0 54 -1 64 -6 38
-7 -34 -7 -33 -9 13 -1 42 1 47 22 47 12 0 38 -4 57 -9 19 -5 56 -12 83 -16
46 -6 47 -7 47 -43 l-1 -37 -17 28 c-9 15 -20 27 -25 27 -4 0 -5 -4 -2 -10 3
-5 4 -10 1 -10 -11 0 -82 36 -94 48 -7 6 -23 11 -35 11 -17 -1 -18 -2 -4 -6
18 -5 24 -23 6 -23 -6 0 -8 -8 -6 -17 3 -10 8 -31 12 -47 5 -23 8 -27 16 -15
5 7 9 9 9 3 0 -12 1 -12 85 -17 57 -4 60 -6 67 -35 5 -17 12 -34 17 -37 11 -6
197 -45 217 -45 8 0 14 10 14 23 0 12 4 18 8 12 4 -5 32 -10 62 -11 30 0 77
-3 103 -5 34 -2 51 1 57 11 10 16 11 15 28 -20 12 -24 12 -23 7 10 -2 19 -1
41 4 49 16 24 2 48 -25 43 -19 -3 -23 -1 -18 12 4 11 13 15 26 10 30 -9 12 15
-19 27 -27 10 -659 109 -698 109 -13 0 -27 -5 -30 -11z m354 -74 c48 0 67 -3
64 -11 -2 -6 6 -14 19 -18 16 -4 19 -8 11 -14 -9 -6 -7 -12 8 -26 16 -14 18
-20 9 -32 -7 -8 -9 -14 -5 -14 5 0 0 -9 -10 -20 -10 -11 -23 -20 -29 -20 -6 0
-4 5 4 10 13 9 13 10 0 10 -8 0 -26 3 -40 6 -20 4 -22 3 -10 -5 13 -9 12 -11
-4 -11 -10 0 -25 8 -32 18 -11 15 -16 15 -34 4 -19 -11 -21 -11 -18 0 3 7 -1
18 -8 23 -19 14 -29 65 -14 65 10 0 10 3 0 15 -9 10 -9 15 -1 15 6 0 12 8 12
18 1 13 2 14 5 2 4 -12 20 -16 73 -15z"/>
<path d="M1160 539 c0 -6 -9 -8 -22 -4 -17 6 -20 4 -15 -10 4 -9 7 -21 7 -26
0 -6 4 -8 9 -4 5 3 12 1 16 -5 9 -14 21 -13 38 4 9 10 18 11 28 4 11 -7 11
-11 2 -15 -7 -2 -13 -8 -13 -13 0 -4 15 0 34 9 18 9 32 19 29 24 -2 4 0 7 5 7
15 0 21 -37 9 -49 -8 -8 -8 -11 1 -12 7 -1 17 -2 22 -3 13 -1 30 -27 25 -36
-2 -3 6 -7 17 -7 28 -3 34 -11 18 -26 -10 -10 -11 -9 -5 3 7 12 6 13 -6 4 -8
-6 -29 -12 -46 -12 -28 -1 -33 3 -33 24 0 13 5 24 11 24 5 0 7 5 4 11 -5 6
-11 4 -19 -7 -18 -24 -40 -9 -26 17 7 13 7 19 0 19 -5 0 -10 -7 -10 -16 0 -14
-3 -14 -15 -4 -9 7 -19 10 -23 6 -8 -9 48 -57 59 -50 4 2 5 -5 2 -17 -4 -14
-8 -17 -13 -9 -5 7 -13 9 -20 5 -9 -5 -11 -4 -6 4 5 7 -3 23 -19 38 -14 15
-23 33 -21 40 3 8 1 11 -4 8 -6 -3 -10 -16 -10 -27 0 -11 -8 -27 -17 -35 -17
-13 -16 -14 4 -10 13 3 24 -1 27 -10 5 -12 0 -13 -24 -8 -23 5 -30 3 -30 -9 0
-8 -4 -17 -8 -20 -9 -5 -7 32 3 57 4 9 13 17 21 17 8 0 14 4 14 9 0 5 -25 8
-55 5 -30 -2 -55 -1 -55 2 0 3 15 11 33 19 l32 14 -57 1 c-32 0 -58 -4 -58
-10 0 -5 7 -10 15 -10 8 0 26 -12 40 -26 25 -25 27 -25 46 -8 12 11 19 13 19
5 0 -21 -27 -41 -46 -34 -11 4 -15 3 -11 -4 9 -15 -35 -4 -45 11 -5 7 -8 3 -8
-9 0 -16 -2 -17 -10 -5 -8 12 -10 12 -16 -3 -3 -10 -12 -16 -18 -15 -17 4 -69
-39 -61 -52 3 -5 0 -10 -7 -11 -7 0 -21 -2 -31 -4 -10 -2 -14 1 -11 7 4 6 1
14 -6 18 -8 5 -7 9 5 13 9 4 13 3 10 -3 -3 -6 1 -10 9 -10 9 0 15 3 15 8 -1 4
0 18 1 32 l2 25 8 -25 c5 -15 8 -18 9 -8 1 10 13 19 31 23 35 8 50 25 21 25
-10 0 -21 -4 -23 -10 -2 -6 -14 -4 -31 5 -15 8 -25 10 -22 5 6 -10 -50 -24
-65 -15 -5 3 -10 14 -10 24 0 18 -47 47 -58 36 -4 -3 3 -8 15 -11 25 -7 37
-30 21 -40 -7 -4 -14 -2 -16 4 -2 7 -8 12 -13 12 -6 0 -7 -4 -4 -10 3 -6 -4
-10 -18 -10 -21 0 -24 4 -19 28 4 23 3 25 -10 15 -18 -15 -28 -7 -28 23 0 12
-7 25 -16 28 -24 9 -28 7 -14 -9 10 -12 10 -19 2 -27 -9 -9 -12 -7 -12 10 0
12 -4 22 -10 22 -5 0 -10 5 -10 11 0 5 4 8 9 4 5 -3 13 0 16 5 5 8 13 6 24 -4
10 -9 21 -13 26 -9 4 5 5 -3 2 -17 l-6 -25 18 24 c10 14 28 26 40 28 23 3 29
-12 9 -20 -10 -4 -10 -6 0 -6 7 -1 15 6 18 14 4 8 12 15 20 15 8 0 11 6 7 16
-5 13 -7 13 -14 2 -7 -11 -9 -11 -9 0 0 10 -3 10 -15 -2 -10 -10 -26 -13 -47
-9 -18 3 -56 5 -85 4 -38 -1 -54 3 -61 15 -8 14 -10 14 -25 -1 -23 -22 -3 -42
36 -37 19 3 28 1 23 -6 -3 -5 -14 -8 -25 -5 -12 3 -25 -5 -39 -21 -11 -14 -28
-26 -39 -26 -10 0 -24 -5 -31 -12 -9 -9 -12 -9 -12 1 0 9 -8 11 -26 7 -17 -5
-23 -3 -19 4 3 5 14 10 23 10 13 0 14 2 4 9 -7 4 -24 6 -38 3 -20 -4 -22 -7
-13 -18 10 -12 6 -14 -25 -10 -20 2 -36 1 -36 -4 0 -4 -14 -13 -32 -19 -17 -6
-29 -14 -25 -17 3 -3 14 -1 24 4 15 8 22 6 32 -10 11 -17 15 -18 22 -7 6 9 8
3 6 -18 -1 -18 -5 -33 -9 -33 -5 0 -8 5 -8 10 0 14 -27 12 -33 -2 -3 -7 -6 -4
-6 7 -1 15 -3 17 -10 6 -6 -10 -12 -4 -22 23 -14 39 -23 45 -33 20 -4 -9 -2
-13 5 -8 7 4 10 1 7 -6 -6 -19 -38 -21 -62 -5 -15 12 -23 12 -34 2 -12 -10
-14 -9 -10 3 3 8 17 15 32 15 15 1 32 8 37 17 5 10 23 16 48 16 22 0 49 6 60
12 12 6 21 8 21 5 0 -4 7 0 15 9 18 18 19 36 3 36 -26 0 -93 -22 -108 -35 -10
-9 -20 -11 -30 -5 -13 8 -12 10 3 10 9 0 17 5 17 11 0 6 -8 8 -17 5 -10 -3
-25 -1 -33 4 -12 8 -11 10 5 8 11 -2 20 2 20 7 0 6 -12 10 -28 10 -15 1 -27
-3 -27 -7 0 -4 -7 -8 -15 -8 -8 0 -15 -5 -15 -10 0 -13 -61 -10 -79 4 -12 9
-13 7 -9 -11 5 -20 4 -21 -14 -12 -15 8 -19 8 -14 0 4 -6 3 -11 -2 -11 -5 0
-8 -10 -7 -22 1 -13 5 -22 8 -20 28 11 38 13 49 9 7 -3 3 -6 -9 -6 -25 -1 -31
-16 -10 -24 6 -3 1 -6 -13 -6 -24 -1 -25 -3 -25 -79 0 -42 4 -83 8 -89 5 -8 4
-13 -2 -13 -6 0 -10 -33 -10 -85 0 -59 4 -85 12 -85 7 0 7 -4 -2 -9 -9 -6 40
-10 132 -10 97 0 147 4 147 11 0 5 -7 7 -16 4 -10 -4 -22 1 -29 10 -7 10 -26
17 -43 17 -21 0 -29 4 -25 14 3 7 16 13 29 13 13 0 24 5 24 11 0 6 6 9 13 6 6
-2 22 0 35 4 22 8 22 8 7 -20 l-15 -29 30 15 c17 8 30 19 30 24 0 5 5 9 12 9
6 0 8 -3 5 -7 -4 -3 -1 -13 6 -21 10 -13 8 -14 -11 -8 -14 5 -22 3 -22 -4 0
-6 -4 -9 -9 -5 -5 3 -12 1 -16 -5 -3 -6 4 -11 17 -11 17 -1 18 -3 5 -6 -32 -8
-18 -19 25 -18 33 0 44 4 46 17 2 10 8 18 13 18 6 0 6 -7 0 -19 -10 -17 -6
-19 39 -19 28 0 50 4 50 9 0 5 13 9 28 9 15 0 33 5 40 12 9 10 16 8 29 -5 11
-11 13 -17 5 -17 -7 0 -12 5 -12 10 0 6 -4 10 -8 10 -5 0 -9 -7 -9 -15 0 -18
28 -20 45 -3 9 9 12 9 12 0 0 -7 5 -12 11 -12 6 0 9 9 6 19 -4 16 1 19 29 18
31 -1 50 -16 22 -18 -7 0 -4 -4 7 -8 12 -5 25 -3 33 6 12 12 17 11 33 -3 25
-22 24 -9 -1 23 -25 32 -25 43 0 43 25 0 25 9 3 26 -13 9 -22 9 -31 2 -7 -6
-15 -9 -18 -6 -2 3 7 13 21 22 14 9 25 12 25 6 0 -18 48 -30 75 -20 25 10 30
4 25 -29 -1 -10 6 -12 24 -7 19 5 28 1 36 -14 9 -17 7 -22 -12 -29 -13 -5 -30
-6 -37 -3 -10 4 -11 7 -3 10 7 2 12 7 12 11 0 9 -46 31 -63 30 -7 0 -2 -4 11
-9 23 -10 30 -34 12 -45 -6 -3 -7 1 -4 9 10 26 -12 18 -24 -8 l-10 -24 68 2
c37 0 63 4 56 8 -6 4 1 8 17 8 16 0 26 -4 22 -10 -3 -5 -1 -10 4 -10 6 0 11 7
11 15 0 8 5 15 11 15 6 0 9 -7 5 -15 -8 -21 11 -19 24 3 10 15 11 15 6 0 -4
-14 3 -17 47 -16 59 2 105 35 91 66 -4 9 -6 27 -5 40 2 15 -3 22 -14 22 -9 0
-14 4 -10 10 3 5 12 7 20 3 16 -5 45 13 45 28 0 5 -7 9 -16 9 -13 0 -13 2 -2
13 7 8 23 19 35 25 17 9 22 9 27 -3 8 -21 27 -19 20 3 -3 10 0 8 8 -5 13 -22
14 -22 30 -4 19 23 12 36 -10 18 -11 -8 -14 -8 -9 0 4 6 2 13 -5 15 -19 7 1
28 27 28 29 0 55 24 56 53 l0 22 9 -21 c9 -24 30 -41 30 -25 0 5 -6 11 -12 14
-18 6 41 67 65 67 13 0 17 5 13 16 -3 9 -6 18 -6 20 0 11 -40 2 -47 -10 -7
-12 -10 -12 -21 0 -11 12 -10 14 3 14 23 0 18 15 -10 28 -20 9 -23 9 -18 -3 3
-8 0 -15 -7 -15 -6 0 -14 9 -17 20 -3 11 -12 20 -20 20 -11 0 -13 7 -9 24 5
20 1 25 -20 30 -18 5 -32 2 -45 -10 -11 -10 -19 -12 -19 -6 0 7 -3 11 -7 11
-22 -4 -43 2 -39 10 3 5 -1 11 -9 15 -8 3 -15 1 -15 -5z m-604 -124 c1 -14 -3
-25 -9 -25 -6 0 -8 -2 -5 -5 9 -9 38 7 38 21 0 22 16 16 28 -11 6 -14 16 -26
22 -26 13 -2 20 -3 51 -12 18 -5 25 -13 25 -29 -1 -20 4 -23 34 -24 63 -2 70
-4 70 -20 0 -12 -3 -14 -12 -6 -7 6 -29 11 -48 11 -58 1 -70 4 -69 15 1 6 1
18 0 26 -1 13 -3 13 -11 -1 -5 -9 -23 -16 -39 -17 -16 0 -39 -6 -51 -12 -20
-11 -21 -10 -10 10 6 12 9 24 6 28 -3 3 -6 1 -6 -5 0 -7 -15 -7 -47 0 -27 5
-58 10 -70 9 -13 0 -23 5 -23 10 0 6 -6 6 -14 -1 -10 -8 -16 -9 -21 -1 -3 6
-11 8 -16 5 -5 -4 -9 1 -9 9 0 11 10 16 31 16 16 0 28 4 25 9 -3 5 5 8 19 7
28 -1 31 -6 13 -24 -9 -9 -5 -12 18 -11 16 0 23 3 17 6 -7 2 -13 9 -13 14 0 4
7 6 15 3 8 -4 17 1 21 10 3 9 10 14 14 11 4 -3 10 4 13 15 7 27 12 25 13 -5z
m377 -254 c-6 -23 35 -37 44 -14 4 11 8 12 13 2 5 -7 28 -12 56 -11 37 0 52 5
67 24 l19 23 -6 -32 c-3 -18 -2 -33 3 -33 14 0 7 -73 -8 -78 -9 -3 -11 0 -5 9
13 22 12 49 -3 49 -7 0 -13 -5 -13 -10 0 -6 -6 -9 -12 -8 -7 2 -13 -6 -13 -17
0 -18 -7 -20 -67 -21 -52 -1 -68 2 -73 14 -3 8 0 19 6 23 12 7 24 49 14 49 -3
0 -10 -10 -16 -22 l-10 -23 5 23 c3 14 -1 25 -10 29 -10 4 -11 10 -3 24 12 24
19 24 12 0z"/>
</g>
</svg>
